<svg width="661" height="133" viewBox="0 0 661 133" fill="none" xmlns="http://www.w3.org/2000/svg">
<path d="M253.21 20.4L223.44 67.59L236.7 114H212L202.25 79.68H191.98L185.87 114H162.47L178.98 20.4H202.38L195.49 59.4H203.81L228.51 20.4H253.21ZM308.363 107.24C301.516 112.96 291.809 115.82 279.242 115.82C266.676 115.82 257.966 112.917 253.112 107.11C249.646 103.123 247.912 97.62 247.912 90.6C247.912 87.48 248.259 84.0567 248.952 80.33L259.483 20.4H282.882L272.352 79.81C272.006 81.9767 271.833 84.23 271.833 86.57C271.833 92.6367 275.473 95.67 282.753 95.67C287.086 95.67 290.553 94.5433 293.153 92.29C295.753 90.0367 297.573 85.8767 298.613 79.81L309.143 20.4H332.543L322.012 80.33C319.846 92.4633 315.296 101.433 308.363 107.24ZM384.075 20.4C393.955 20.4 400.975 22.5667 405.135 26.9C408.255 30.1933 409.815 34.3533 409.815 39.38C409.815 41.1133 409.642 42.9333 409.295 44.84L407.475 54.98C406.435 60.6133 404.615 65.1633 402.015 68.63C399.502 72.0967 396.685 74.5667 393.565 76.04L405.395 114H379.135L368.215 79.03H360.155L354.825 114H329.865L346.375 20.4H384.075ZM375.885 40.68H366.135L362.755 63.3H371.855C376.449 63.3 379.742 62.2167 381.735 60.05C383.729 57.7967 384.725 54.85 384.725 51.21C384.725 44.19 381.779 40.68 375.885 40.68ZM457.558 114L458.338 93.59H436.628L430.258 114H405.428L438.838 20.4H481.738L482.258 114H457.558ZM452.228 43.15L441.958 76.17H458.988L460.418 43.15H452.228ZM544.869 20.4C554.749 20.4 561.769 22.5667 565.929 26.9C569.049 30.1933 570.609 34.3533 570.609 39.38C570.609 41.1133 570.436 42.9333 570.089 44.84L568.919 51.08C567.966 56.02 566.102 59.8767 563.329 62.65C560.642 65.4233 558.259 66.81 556.179 66.81L556.049 67.85C558.476 67.85 560.946 69.1933 563.459 71.88C565.972 74.5667 567.229 77.73 567.229 81.37C567.229 82.8433 567.056 84.4033 566.709 86.05L565.929 90.08C564.542 97.5333 561.206 103.383 555.919 107.63C550.719 111.877 543.439 114 534.079 114H490.659L507.169 20.4H544.869ZM533.169 75.78H520.819L517.699 93.72H530.049C530.222 93.72 530.396 93.72 530.569 93.72C534.556 93.72 537.719 92.81 540.059 90.99C542.399 89.0833 543.569 86.7867 543.569 84.1C543.569 78.5533 540.102 75.78 533.169 75.78ZM536.679 40.68H526.929L523.549 60.05H533.169C541.489 60.05 545.649 56.41 545.649 49.13C545.649 46.6167 544.869 44.58 543.309 43.02C541.836 41.46 539.626 40.68 536.679 40.68ZM636.679 107.24C629.832 112.96 620.125 115.82 607.559 115.82C594.992 115.82 586.282 112.917 581.429 107.11C577.962 103.123 576.229 97.62 576.229 90.6C576.229 87.48 576.575 84.0567 577.269 80.33L587.799 20.4H611.199L600.669 79.81C600.322 81.9767 600.149 84.23 600.149 86.57C600.149 92.6367 603.789 95.67 611.069 95.67C615.402 95.67 618.869 94.5433 621.469 92.29C624.069 90.0367 625.889 85.8767 626.929 79.81L637.459 20.4H660.859L650.329 80.33C648.162 92.4633 643.612 101.433 636.679 107.24Z" fill="#232323"/>
<path fill-rule="evenodd" clip-rule="evenodd" d="M17.1468 8.50949C17.8842 3.61751 22.0879 0 27.0351 0H142.822C148.89 0 153.56 5.35994 152.728 11.3704L137.096 124.37C136.411 129.317 132.183 133 127.19 133H10.0021C3.88548 133 -0.797908 127.558 0.113774 121.509L17.1468 8.50949ZM44.9614 20.2881C39.9681 20.2881 35.74 23.9715 35.0557 28.9178L25.0365 101.341C24.2051 107.352 28.8745 112.712 34.9422 112.712H108.079C113.026 112.712 117.23 109.094 117.967 104.202L128.884 31.7786C129.796 25.7304 125.112 20.2881 118.996 20.2881H44.9614Z" fill="#F24F4A"/>
<path d="M111.7 30L88.8 66.3L99 102H80L72.5 75.6H64.6L59.9 102H41.9L54.6 30H72.6L67.3 60H73.7L92.7 30H111.7Z" fill="#F24F4A"/>
</svg>
